<?xml version="1.0" encoding="utf-8"?>
<!-- Generated by IcoMoon.io -->
<!DOCTYPE svg PUBLIC "-//W3C//DTD SVG 1.1//EN" "http://www.w3.org/Graphics/SVG/1.1/DTD/svg11.dtd">
<svg version="1.1" xmlns="http://www.w3.org/2000/svg" xmlns:xlink="http://www.w3.org/1999/xlink" width="80" height="80" viewBox="0 0 80 80">
<path fill="#FFF" d="M25 10h-10c-2.75 0-5 2.25-5 5v10c0 2.75 2.25 5 5 5h10c2.75 0 5-2.25 5-5v-10c0-2.75-2.25-5-5-5z"></path>
<path fill="#FFF" d="M55 30h10c2.75 0 5-2.25 5-5v-10c0-2.75-2.25-5-5-5h-10c-2.75 0-5 2.25-5 5v10c0 2.75 2.25 5 5 5zM55 15h10v10h-10v-10z"></path>
<path fill="#FFF" d="M25 50h-10c-2.75 0-5 2.25-5 5v10c0 2.75 2.25 5 5 5h10c2.75 0 5-2.25 5-5v-10c0-2.75-2.25-5-5-5zM25 65h-10v-10h10v10z"></path>
<path fill="#FFF" d="M65 50h-10c-2.75 0-5 2.25-5 5v10c0 2.75 2.25 5 5 5h10c2.75 0 5-2.25 5-5v-10c0-2.75-2.25-5-5-5z"></path>
<path fill="#FFF" d="M70 40h-5c-6.678 0-12.956-2.6-17.678-7.322s-7.322-11-7.322-17.678v-5c0-5.5-4.5-10-10-10h-20c-5.5 0-10 4.5-10 10v20c0 5.5 4.5 10 10 10h5c6.678 0 12.956 2.6 17.678 7.322s7.322 11 7.322 17.678v5c0 5.5 4.5 10 10 10h20c5.5 0 10-4.5 10-10v-20c0-5.5-4.5-10-10-10zM75 70c0 1.325-0.523 2.577-1.473 3.527s-2.202 1.473-3.527 1.473h-20c-1.325 0-2.577-0.523-3.527-1.473s-1.473-2.202-1.473-3.527v-5c0-16.569-13.431-30-30-30h-5c-1.325 0-2.577-0.523-3.527-1.473s-1.473-2.203-1.473-3.527v-20c0-1.325 0.523-2.577 1.473-3.527s2.203-1.473 3.527-1.473h20c1.325 0 2.577 0.523 3.527 1.473s1.473 2.203 1.473 3.527v5c0 16.569 13.431 30 30 30h5c1.325 0 2.577 0.523 3.527 1.473s1.473 2.202 1.473 3.527v20z"></path>
</svg>
